<svg width="50" height="69" viewBox="0 0 50 69" fill="none" xmlns="http://www.w3.org/2000/svg">
<path fill-rule="evenodd" clip-rule="evenodd" d="M23.257 0.0325553C20.1635 0.385783 18.391 0.767874 16.4006 1.51021C11.0991 3.48755 6.67421 7.11816 3.66137 11.9627C0.822382 16.5275 -0.488785 22.4457 0.16538 27.742C1.21572 36.2456 7.29096 47.9878 17.3645 60.9843C19.747 64.0581 22.8096 67.7389 23.5116 68.3721C24.4397 69.2093 25.5862 69.2093 26.5143 68.3721C27.2163 67.7389 30.279 64.0581 32.6614 60.9843C41.7279 49.2872 47.5392 38.6602 49.3781 30.4156C49.8513 28.2938 50.002 26.91 50 24.7074C49.994 18.2271 47.393 12.0376 42.7137 7.3678C38.8454 3.50752 34.2869 1.16925 28.9301 0.297443C27.6617 0.0909546 24.1723 -0.07197 23.257 0.0325553ZM26.5904 12.5063C31.6314 13.189 35.8057 16.8035 37.1726 21.6693C37.533 22.9522 37.6693 25.5315 37.4504 26.9286C36.8251 30.9201 34.1979 34.4305 30.4835 36.2378C28.2929 37.3036 26.0593 37.7051 23.7635 37.4455C21.983 37.2441 21.0795 36.9857 19.5425 36.2378C15.8281 34.4305 13.2009 30.9201 12.5756 26.9286C12.3567 25.5315 12.4929 22.9522 12.8533 21.6693C14.5424 15.6567 20.5018 11.6817 26.5904 12.5063Z" fill="#97BF8D"/>
</svg>
